<?xml version="1.0" encoding="utf-8"?>
<!-- Generator: Adobe Illustrator 24.3.0, SVG Export Plug-In . SVG Version: 6.00 Build 0)  -->
<svg version="1.1" id="Capa_1" xmlns="http://www.w3.org/2000/svg" xmlns:xlink="http://www.w3.org/1999/xlink" x="0px" y="0px"
	 viewBox="0 0 78 89" style="enable-background:new 0 0 78 89;" xml:space="preserve">
<style type="text/css">
	.st0{fill:#FFFFFF;}
	.st1{fill:none;stroke:#FFFFFF;stroke-width:1.5;stroke-miterlimit:10;}
	.st2{fill:none;stroke:#FFFFFF;stroke-width:3;stroke-miterlimit:10;}
</style>
<g>
	<path class="st0" d="M42.6,34.1c0.2-0.2,0.3-0.2,0.4-0.3c1.4-1.3,3-2.2,4.9-2.2c2.9-0.1,5.8-0.2,8.7,0.1c5.1,0.4,9.5,4.7,10.5,9.8
		c0.2,0.9,0.3,1.8,0.3,2.7c0,8.2,0,16.4,0,24.5c0,1.1-0.4,1.5-1.5,1.5c-3.9,0-7.7,0-11.6,0c-1.1,0-1.5-0.4-1.5-1.5
		c0-7.1,0-14.2,0-21.3c0-2.3-1.2-4.2-3.3-5c-2.9-1.1-6.1,0.6-6.8,3.6c-0.1,0.3-0.1,0.6-0.1,0.9c0,7.2,0,14.4,0,21.7
		c0,0.2,0,0.3,0,0.5c0,0.7-0.5,1.1-1.2,1.1c-4.1,0-8.2,0-12.2,0c-0.7,0-1.1-0.4-1.2-1.2c0-0.1,0-0.3,0-0.4c0-11.8,0-23.6,0-35.4
		c0-1.3,0.3-1.6,1.6-1.6c3.8,0,7.6,0,11.5,0c1.1,0,1.5,0.4,1.5,1.5C42.6,33.4,42.6,33.7,42.6,34.1z M65,68c0-0.2,0-0.3,0-0.5
		c0-7.8,0-15.6,0-23.4c0-0.7-0.1-1.3-0.2-2c-0.8-4.3-4.6-7.9-8.9-8.2c-2.3-0.1-4.5-0.1-6.8-0.1c-1.7,0-3.3,0.4-4.5,1.6
		c-0.7,0.7-1.4,1.4-2,2.1c-0.4,0.5-0.8,1-1.6,0.7c-0.7-0.3-0.8-0.9-0.7-1.6c0-0.9,0-1.8,0-2.8c-3.4,0-6.7,0-10,0c0,11.4,0,22.7,0,34
		c3.3,0,6.7,0,10,0c0-0.2,0-0.4,0-0.6c0-6.8,0-13.7,0-20.5c0-0.2,0-0.4,0-0.6c0.5-4.3,4.9-7.3,9.1-6.2c3.3,0.9,5.5,3.7,5.5,7.2
		c0,6.7,0,13.4,0,20.1c0,0.2,0,0.4,0,0.6C58.4,68,61.7,68,65,68z"/>
	<path class="st0" d="M9.3,50.9c0-5.9,0-11.9,0-17.8c0-1.1,0.4-1.5,1.5-1.5c3.9,0,7.7,0,11.6,0c1.1,0,1.5,0.4,1.5,1.5
		c0,11.9,0,23.8,0,35.7c0,1.1-0.4,1.5-1.4,1.5c-3.9,0-7.8,0-11.7,0c-1.1,0-1.4-0.4-1.4-1.4C9.3,62.8,9.3,56.9,9.3,50.9z M11.6,33.9
		c0,11.4,0,22.7,0,34.1c3.3,0,6.7,0,10,0c0-11.4,0-22.7,0-34.1C18.3,33.9,15,33.9,11.6,33.9z"/>
	<path class="st0" d="M9.1,20.9c0.1-4.2,3.5-7.5,7.6-7.4c4.2,0.1,7.4,3.5,7.4,7.7c-0.1,4.1-3.5,7.4-7.6,7.4C12.4,28.4,9,25,9.1,20.9
		z M21.9,20.9c0-2.9-2.3-5.2-5.2-5.2s-5.2,2.4-5.2,5.2c0,2.9,2.4,5.3,5.2,5.2C19.5,26.2,21.9,23.8,21.9,20.9z"/>
</g>
<g>
	<path class="st0" d="M164,43.3c0,5.9,0,11.9,0,17.8c0,5.8-3.5,10.8-9,12.6c-1.4,0.5-2.8,0.7-4.3,0.7c-11.9,0-23.7,0-35.6,0
		c-6.6,0-11.9-4.4-13.1-10.8c-0.2-0.8-0.2-1.6-0.2-2.5c0-11.9,0-23.7,0-35.6c0-6.4,4.1-11.6,10.3-13c1-0.2,2-0.3,3-0.3
		c11.8,0,23.7,0,35.5,0c6.8,0,12.1,4.9,13.1,10.9c0.1,0.8,0.2,1.7,0.2,2.6C164,31.4,164,37.3,164,43.3z M104.4,43.2
		c0,5.9,0,11.7,0,17.6c0,0.9,0.1,1.7,0.2,2.6c1.1,5,5.3,8.4,10.6,8.4c11.9,0,23.7,0,35.6,0c0.8,0,1.6-0.1,2.4-0.2
		c5.1-1.1,8.4-5.3,8.4-10.6c0-11.8,0-23.6,0-35.5c0-0.6,0-1.1-0.1-1.7c-0.8-5.4-5.1-9.2-10.6-9.2c-12,0-23.9,0-35.9,0
		c-2,0-4,0.5-5.7,1.6c-3.3,2.2-5,5.3-5,9.2C104.3,31.3,104.4,37.3,104.4,43.2z"/>
	<path class="st0" d="M115.6,43.2c0-9.6,7.8-17.3,17.4-17.3s17.4,7.8,17.3,17.4c0,9.6-7.8,17.3-17.4,17.3
		C123.3,60.5,115.6,52.8,115.6,43.2z M147.8,43.2c0-8.2-6.7-14.9-14.9-14.9c-8.2,0-14.9,6.7-14.9,14.9s6.7,14.9,14.9,14.9
		C141.2,58.1,147.9,51.4,147.8,43.2z"/>
	<path class="st0" d="M152,24.9c-0.7,0-1.3-0.5-1.3-1.3c0-0.7,0.5-1.3,1.2-1.3c0.7,0,1.3,0.5,1.3,1.3
		C153.3,24.3,152.7,24.9,152,24.9z"/>
</g>
<g>
	<g>
		<path class="st1" d="M226.9,79.6c-19.6,0-35.5-15.9-35.5-35.5s15.9-35.5,35.5-35.5s35.5,15.9,35.5,35.5
			C262.3,63.7,246.4,79.6,226.9,79.6z M227,47.9c-0.1,0-0.2,0-0.2,0c-0.1-0.3-0.2-0.6-0.3-0.9c-1.7-6.3-3.4-12.6-5.1-19
			c-0.2-0.8-0.5-1-1.3-1c-4.7,0-9.3,0-14,0c-0.3,0-0.7,0-1,0.1c0,1.6,0,3.2,0,4.7c2.1,0.4,2.4,0.7,2.4,2.8c0,6.3,0,12.5,0,18.8
			c0,2.3-0.2,2.5-2.3,2.9c0,1.6,0,3.1,0,4.7c4,0,8,0,11.9,0c0-1.6,0-3.1,0-4.8c-0.8,0-1.6,0-2.3,0c0-7.9,0-14.6,0-22.3
			c0.3,0.3,0.4,0.7,0.5,1c2.2,8.4,4.5,16.7,6.7,25.1c0.2,0.7,0.4,1.2,1.3,1.1c1.5-0.1,3-0.1,4.6,0c0.7,0,1-0.2,1.2-0.9
			c2.3-8.4,4.6-16.9,6.8-25.3c0.1-0.4,0.2-0.7,0.3-1c0.1,0,0.1,0,0.2,0.1c0,7.4,0,14.8,0,22.4c-0.8,0-1.6,0-2.3,0c0,1.7,0,3.2,0,4.8
			c4.8,0,9.6,0,14.4,0c0-1.6,0-3.1,0-4.7c-2.2-0.4-2.4-0.7-2.4-2.9c0-4.5,0-9,0-13.5c0-2,0-4.1,0-6.1c0-1.1,0.5-1.7,1.6-1.9
			c0.3-0.1,0.5-0.1,0.7-0.1c0-1.6,0-3.1,0-4.7c-0.2,0-0.4-0.1-0.5-0.1c-4.9,0-9.8,0-14.7,0c-0.8,0-0.9,0.4-1,1
			c-1.2,4.3-2.3,8.6-3.5,12.9C228.3,43.3,227.7,45.6,227,47.9z"/>
	</g>
	<circle class="st2" cx="227.5" cy="43.6" r="36"/>
</g>
</svg>
