<svg xmlns="http://www.w3.org/2000/svg" width="218.568" height="282.553" viewBox="0 0 218.568 282.553">
  <g id="Grupo_493" data-name="Grupo 493" transform="translate(-18.273 -18.265)">
    <path id="Trazado_2717" data-name="Trazado 2717" d="M74.29,169.79s-25.714,1.664-36.448,27.844" fill="none" stroke="#fff" stroke-linecap="round" stroke-miterlimit="10" stroke-width="30"/>
    <g id="Grupo_491" data-name="Grupo 491">
      <path id="Trazado_2718" data-name="Trazado 2718" d="M56.51,152.914l15.525-6.028c10.018-3.889,21.025.389,24.584,9.556l1.072,2.761c3.56,9.168-1.677,19.752-11.695,23.642l-15.524,6.028Z" fill="#e5274b"/>
    </g>
    <path id="Trazado_2719" data-name="Trazado 2719" d="M188.474,140.443s24.96-6.4,30.655-34.118" fill="none" stroke="#fff" stroke-linecap="round" stroke-miterlimit="10" stroke-width="30"/>
    <g id="Grupo_492" data-name="Grupo 492">
      <path id="Trazado_2720" data-name="Trazado 2720" d="M209.074,153.73l-14.138,8.8c-9.124,5.68-20.733,3.516-25.93-4.833l-1.565-2.514c-5.2-8.349-2.014-19.721,7.11-25.4l14.137-8.8Z" fill="#e5274b"/>
    </g>
    <path id="Trazado_2721" data-name="Trazado 2721" d="M196.1,209.91c0,25.836-29.426,42.8-65.523,42.8s-63.008-17.057-65.2-42.8c-3.981-46.782,29.263-46.782,65.361-46.782S196.1,159.811,196.1,209.91Z" fill="#fff"/>
    <path id="Trazado_2722" data-name="Trazado 2722" d="M70.816,217.541c-.582.931-9.158,15.262,0,65.361,0,0-12.739-2.327-13.071,17.916H102.9s9.41-21.5,3.031-51.06C105.928,249.758,85.546,193.984,70.816,217.541Z" fill="#fff"/>
    <path id="Trazado_2723" data-name="Trazado 2723" d="M196.127,217.541c.582.931,9.158,15.262,0,65.361,0,0,12.739-2.327,13.071,17.916H164.046s-9.409-21.5-3.031-51.06C161.015,249.758,181.4,193.984,196.127,217.541Z" fill="#fff"/>
    <path id="Trazado_2724" data-name="Trazado 2724" d="M88.4,147.009S70.353,162.8,61.4,186.353c0,0,67.683,28.534,142.666,0,0,0-17.969-35.313-29.887-42.208C174.174,144.145,132.331,116.623,88.4,147.009Z" fill="#e5274b"/>
    <ellipse id="Elipse_25" data-name="Elipse 25" cx="59.047" cy="55.96" rx="59.047" ry="55.96" transform="translate(70.816 51.208)" fill="#fff"/>
    <circle id="Elipse_26" data-name="Elipse 26" cx="29.162" cy="29.162" r="29.162" transform="translate(100.474 104.805)" fill="none" stroke="#d9d9d9" stroke-miterlimit="10" stroke-width="2"/>
    <circle id="Elipse_27" data-name="Elipse 27" cx="11.149" cy="11.149" r="11.149" transform="translate(117.104 115.998)" fill="#131313"/>
    <circle id="Elipse_28" data-name="Elipse 28" cx="4.694" cy="4.694" r="4.694" transform="translate(102.897 93.904)" fill="#131313"/>
    <circle id="Elipse_29" data-name="Elipse 29" cx="4.694" cy="4.694" r="4.694" transform="translate(141.225 94.298)" fill="#131313"/>
    <path id="Trazado_2725" data-name="Trazado 2725" d="M120.753,148.894c1.008,1.383,11.2,6.562,17.766-.784" fill="none" stroke="#131313" stroke-linecap="round" stroke-miterlimit="10" stroke-width="2"/>
    <circle id="Elipse_30" data-name="Elipse 30" cx="21.496" cy="21.496" r="21.496" transform="translate(145.918 42.453)" fill="#fff"/>
    <circle id="Elipse_31" data-name="Elipse 31" cx="21.496" cy="21.496" r="21.496" transform="translate(64.291 46.546)" fill="#fff"/>
    <circle id="Elipse_32" data-name="Elipse 32" cx="27.934" cy="27.934" r="27.934" transform="translate(97.812 24.864)" fill="#e5274b"/>
    <circle id="Elipse_33" data-name="Elipse 33" cx="4.694" cy="4.694" r="4.694" transform="translate(121.053 18.265)" fill="#e5274b"/>
    <path id="Trazado_2726" data-name="Trazado 2726" d="M125.746,52.8" fill="none" stroke="#d9d9d9" stroke-miterlimit="10" stroke-width="1"/>
    <path id="Trazado_2727" data-name="Trazado 2727" d="M79.135,78.635A57.5,57.5,0,0,1,96.265,61.18a12.907,12.907,0,1,0-17.13,17.455Z" fill="#d9d9d9"/>
    <path id="Trazado_2728" data-name="Trazado 2728" d="M176.6,73.059a12.923,12.923,0,1,0-20.2-15.83A58.6,58.6,0,0,1,176.6,73.059Z" fill="#d9d9d9"/>
    <path id="Trazado_2729" data-name="Trazado 2729" d="M116.568,36.366c.077,0,.217,0,.418.009.49.018,1.311.049,2.478.011.7-.022,1.173-.066,1.625-.109s.919-.085,1.6-.107c4.994-.16,8.044,1.931,8.161,5.593a6.649,6.649,0,0,1-3.523,5.815l-.247.154-.038.022,0,0a29.053,29.053,0,0,0,4.391,5.689,8.52,8.52,0,0,0,4.4,2.525.578.578,0,0,1,.5.531.544.544,0,0,1-.116.447c-.185.215-.542.339-1.9.383-4.632.148-7.036-3.665-8.969-6.729-.217-.344-.428-.679-.636-1l-.037-.053a2.617,2.617,0,0,0-1.5-1.168c-.068-.022-.129-.043-.181-.063a.828.828,0,0,1-.708-.786.617.617,0,0,1,.639-.652.817.817,0,0,1,.222.017,3.916,3.916,0,0,0,.8.01,4.179,4.179,0,0,0,3.02-1.309,4.108,4.108,0,0,0,1.065-2.977c-.141-2.961-2.37-4.805-5.677-4.7-1.07.035-1.153.109-1.14.512l.457,14.317c.078,2.432,1.147,2.58,2.006,2.7.449.062,1.064.147,1.084.779.023.715-.815.742-1.174.753-.425.014-.749,0-1.116-.01-.475-.016-1.011-.035-1.949-.005-.737.024-1.349.078-1.891.127-.438.039-.828.073-1.2.085a.765.765,0,0,1-.851-.689c-.017-.531.457-.692.8-.81.609-.207,1.368-.465,1.309-2.294l-.434-13.581c-.059-1.844-.724-1.861-1.365-1.877-.357-.01-1.023-.026-1.046-.742A.757.757,0,0,1,116.568,36.366Z" fill="#fff"/>
  </g>
</svg>
