<?xml version="1.0" encoding="utf-8"?>
<!-- Generator: Adobe Illustrator 24.0.1, SVG Export Plug-In . SVG Version: 6.00 Build 0)  -->
<svg version="1.1" id="r-com" xmlns="http://www.w3.org/2000/svg" xmlns:xlink="http://www.w3.org/1999/xlink" x="0px" y="0px"
	 viewBox="0 0 162.5 169" style="enable-background:new 0 0 162.5 169;" xml:space="preserve">
<style type="text/css">
	.st0{fill:#1A1A1A;}
	.st1{fill:#6A216E;}
	.st2{fill:#CF373F;}
	.st3{fill:#F8CF4B;}
</style>
<path id="Trazado_3090" class="st0" d="M106.3,113.2c0-0.5-0.6-0.6-0.6-0.6c-6.2-1.1-12-5.5-16.4-10.1C83.2,96,78,88.8,73.8,81
	c-0.7-1.6,0.3-1.8,0.3-1.8l0,0c12.1-4.7,14.1-16.7,14.1-20c0-15.3-14.5-19.8-27.6-19.8c-4.9,0-6.6,0.4-11.7,0.4
	c-6,0-9.6-0.4-10.5-0.4c-0.8,0-1.4,0.7-1.3,1.5c0,0,0,0.1,0,0.1c0,3.7,8.4-2.6,8.4,9.8v49.3c0,11.4-8,8.2-8,11c0,0.9,1,1.2,1.6,1.2
	c3,0,6.4-0.4,11.2-0.4c6.1,0,7.6,0.4,11.1,0.4c2.6,0,3-0.5,3-1.2c0-3.5-10.8,1.9-10.8-13V46c0-3.1,2.3-3.1,5.6-3.1
	c11.8,0,21.2,6.6,21.4,19c0.1,8.4-6.2,16.4-16.7,16.4c-1.2,0.1-2.5,0-3.7-0.2c-0.5,0-1,0.2-1,0.9c0,0.9,0.8,1.4,1.7,1.7
	c2.8,0.8,5.1,2.7,6.6,5.2l0,0c7,11.5,14.9,28.7,32.9,28.7C107,114.6,106.3,113.9,106.3,113.2"/>
<path class="st1" d="M99.7,101.1l8.7-3.4l-9.3-3.5l9.3-3.4l-8.7-3.6v-2.1l13.8,5.8l-9.2,3.3l9.2,3.5l-13.8,5.5V101.1z"/>
<path class="st2" d="M106.1,84.7c-1.8,0-3.4-0.7-4.7-2c-1.3-1.3-2-2.9-2-4.8c0-1.8,0.7-3.4,2-4.7c1.3-1.3,2.9-2,4.8-2
	c1.9,0,3.4,0.7,4.7,2c1.3,1.3,2,3,2,4.8c0,1.7-0.6,3.2-1.7,4.5C109.9,84,108.2,84.7,106.1,84.7z M106.2,82.7c1.4,0,2.6-0.5,3.5-1.4
	c0.9-1,1.4-2.1,1.4-3.3c0-1.4-0.5-2.5-1.4-3.4c-1-0.9-2.1-1.4-3.5-1.4c-1.4,0-2.5,0.5-3.5,1.4c-0.9,0.9-1.4,2.1-1.4,3.4
	c0,1.3,0.5,2.5,1.4,3.4C103.7,82.3,104.8,82.7,106.2,82.7z"/>
<path class="st1" d="M107.2,64.3l5.5-4v2.4l-5.3,3.7v0.4h5.3v2h-13v-2.3c0-1.7,0.3-2.9,1-3.7c0.7-0.8,1.7-1.3,2.8-1.3
	c0.9,0,1.7,0.3,2.4,0.8S107,63.5,107.2,64.3z M105.7,66.7v-0.6c0-1.9-0.7-2.8-2.1-2.8c-1.3,0-2,0.9-2,2.7v0.7H105.7z"/>
<path class="st3" d="M104.9,56.4l-5.2-5v-2.6l5.9,5.9l7.1-5.9v2.6l-5.8,4.7l0.4,0.4h5.4v2h-13v-2H104.9z"/>
<path class="st2" d="M101.7,40.1l0.9,1.6c-0.5,0.3-0.9,0.6-1,0.8c-0.2,0.3-0.3,0.6-0.3,1.1c0,0.5,0.2,1,0.5,1.4
	c0.3,0.4,0.7,0.5,1.1,0.5c0.6,0,1.1-0.5,1.5-1.4l0.5-1.3c0.4-1.1,0.9-1.8,1.6-2.3c0.6-0.5,1.4-0.7,2.3-0.7c1.2,0,2.2,0.4,3,1.2
	c0.8,0.8,1.2,1.8,1.2,3c0,1.1-0.3,2.1-1,2.8c-0.7,0.7-1.6,1.2-2.8,1.4l-0.4-2c0.8-0.1,1.3-0.2,1.6-0.5c0.6-0.4,0.8-1,0.8-1.8
	c0-0.6-0.2-1.1-0.6-1.5c-0.4-0.4-0.9-0.6-1.6-0.6c-0.3,0-0.5,0-0.7,0.1c-0.2,0.1-0.4,0.2-0.6,0.3c-0.2,0.1-0.3,0.3-0.5,0.6
	c-0.2,0.2-0.3,0.5-0.4,0.8l-0.5,1.3c-0.7,1.8-1.8,2.7-3.3,2.7c-1,0-1.8-0.4-2.4-1.1c-0.7-0.7-1-1.7-1-2.8
	C99.5,42.1,100.2,41,101.7,40.1z"/>
</svg>
