<?xml version="1.0" encoding="utf-8"?>
<!-- Generator: Adobe Illustrator 24.3.0, SVG Export Plug-In . SVG Version: 6.00 Build 0)  -->
<svg version="1.1" id="Capa_1" xmlns="http://www.w3.org/2000/svg" xmlns:xlink="http://www.w3.org/1999/xlink" x="0px" y="0px"
	 viewBox="0 0 78 82" style="enable-background:new 0 0 78 82;" xml:space="preserve">
<style type="text/css">
	.st0{fill:#FFFFFF;}
</style>
<g>
	<path class="st0" d="M70.3,41.8c0,5.9,0,11.9,0,17.8c0,5.8-3.5,10.8-9,12.6c-1.4,0.5-2.8,0.7-4.3,0.7c-11.9,0-23.7,0-35.6,0
		c-6.6,0-11.9-4.4-13.1-10.8c-0.2-0.8-0.2-1.6-0.2-2.5c0-11.9,0-23.7,0-35.6c0-6.4,4.1-11.6,10.3-13c1-0.2,2-0.3,3-0.3
		c11.8,0,23.7,0,35.5,0c6.8,0,12.1,4.9,13.1,10.9c0.1,0.8,0.2,1.7,0.2,2.6C70.3,29.9,70.3,35.8,70.3,41.8z M10.7,41.7
		c0,5.9,0,11.7,0,17.6c0,0.9,0.1,1.7,0.2,2.6c1.1,5,5.3,8.4,10.6,8.4c11.9,0,23.7,0,35.6,0c0.8,0,1.6-0.1,2.4-0.2
		c5.1-1.1,8.4-5.3,8.4-10.6c0-11.8,0-23.6,0-35.5c0-0.6,0-1.1-0.1-1.7c-0.8-5.4-5.1-9.2-10.6-9.2c-12,0-23.9,0-35.9,0
		c-2,0-4,0.5-5.7,1.6c-3.3,2.2-5,5.3-5,9.2C10.6,29.8,10.7,35.8,10.7,41.7z"/>
	<path class="st0" d="M21.9,41.7c0-9.6,7.8-17.3,17.4-17.3s17.4,7.8,17.3,17.4c0,9.6-7.8,17.3-17.4,17.3
		C29.6,59,21.9,51.3,21.9,41.7z M54.1,41.7c0-8.2-6.7-14.9-14.9-14.9s-14.9,6.7-14.9,14.9S31,56.6,39.2,56.6
		C47.5,56.6,54.2,49.9,54.1,41.7z"/>
	<path class="st0" d="M58.3,23.4c-0.7,0-1.3-0.5-1.3-1.3c0-0.7,0.5-1.3,1.2-1.3s1.3,0.5,1.3,1.3C59.6,22.8,59,23.4,58.3,23.4z"/>
</g>
</svg>
