<?xml version="1.0" encoding="utf-8"?>
<!-- Generator: Adobe Illustrator 24.3.0, SVG Export Plug-In . SVG Version: 6.00 Build 0)  -->
<svg version="1.1" id="Capa_1" xmlns="http://www.w3.org/2000/svg" xmlns:xlink="http://www.w3.org/1999/xlink" x="0px" y="0px"
	 viewBox="0 0 1046 465" style="enable-background:new 0 0 1046 465;" xml:space="preserve">
<style type="text/css">
	.st0{fill:#FFFFFF;}
	.st1{clip-path:url(#SVGID_2_);}
	.st2{fill:#E56565;}
	.st3{fill:#4F4F4F;}
	.st4{fill:#E2E2E7;}
	.st5{fill:#FF7816;}
	.st6{fill:#FF4B00;}
	.st7{fill:#E56565;fill-opacity:0.3;}
	.st8{fill:#4F4F4F;stroke:#4F4F4F;stroke-width:0.8975;}
</style>
<g>
	<circle class="st0" cx="198.8" cy="195.9" r="34.2"/>
	<path class="st0" d="M198.9,79.5l-8.2,6.1c-46.6,39.4-56.9,100.9-24.6,149c2,2.6,3.8,5.2,5.3,8.3h27.4l0-16.2
		c-15,0-32.8-9.5-32.8-30.1s13.7-32.2,32.8-32.2V79.5z"/>
	<g>
		<g>
			<defs>
				<rect id="SVGID_1_" x="-0.6" y="2.3" width="388.9" height="460.3"/>
			</defs>
			<clipPath id="SVGID_2_">
				<use xlink:href="#SVGID_1_"  style="overflow:visible;"/>
			</clipPath>
			<g class="st1">
				<path class="st0" d="M300.7,404.9c-7.7,0-14.9,3.6-20.5,9.2c0-1,0-2,0-3.1c0-18.9-13.8-34.8-30.7-34.8c-5.1,0-9.7,1.5-13.8,4.1
					c-5.1-8.2-12.8-14.8-21.5-18.4v-61.4h-30.7v61.4c-8.7,3.6-16.4,9.7-21.5,18.4c-4.1-2.6-8.7-4.1-13.8-4.1
					c-16.9,0-30.7,15.3-30.7,34.8c0,1,0,2,0,3.1c-5.6-5.6-12.8-9.2-20.5-9.2c-16.9,0-30.7,15.3-30.7,34.8c0,6.1,1.5,12.3,4.1,17.4
					h256.2c2.6-5.1,4.1-11.3,4.1-17.4C331.4,420.2,317.6,404.9,300.7,404.9z"/>
				<path class="st2" d="M334.5,450.9c1-3.6,1.5-7.7,1.5-11.8c0-22.5-15.9-40.4-35.4-40.4c-5.6,0-11.3,1.5-15.9,4.1
					c-3.1-18.9-17.4-33.2-34.8-33.2c-4.1,0-8.7,1-12.3,2.6c-4.6-6.1-10.8-11.8-17.9-14.8v-10.7c0,0,0-4.4-5.1-4.4s-5.1,4.4-5.1,4.4
					V365l3.6,1.5c13.3,5.1,23.1,17.9,26.1,33.2c1,6.1,5.6,10.2,11.3,10.2c0-10.2-2.6-19.4-6.7-28.1c2-0.5,4.1-1,6.7-1
					c14.3,0,25.6,13.3,25.6,29.7c-3.6,4.1-6.1,9.2-8.2,14.8c-2,6.6,2,13.3,8.2,13.3c0-17.4,13.8-31.7,29.7-28.6
					c5.1,1,9.7,3.6,13.3,7.7c8.2,9.2,9.7,23.1,5.6,33.4H74.2c-3.6-8.7-3-21.1,3.1-29.8c2-3.1,4.6-5.6,7.7-7.7
					c12.8-8.2,24.5-7,31.2,6.3c2.1,1.8,4.6,3.3,7.5,1.2c2.9-2.1,2.5-5.8-0.2-10.1c-0.5-16.4,11.3-29.7,25.6-29.7c2,0,4.6,0.5,6.7,1
					c-5.1,8.7-7.7,18.4-7.7,28.1c0,8.7,2,17.4,5.1,25.6c2.6,6.1,9.2,7.7,13.8,3.6c-6.1-8.7-9.7-19.9-8.7-31.7
					c1-18.9,12.3-35.3,28.2-41.4l2-1v-18.4c0,0,0-4.9-5.1-4.9c-5.1,0-5.1,4.9-5.1,4.9v10.7c-7.2,3.6-13.3,8.7-17.9,14.8
					c-4.1-1.5-8.2-2.6-12.3-2.6c-17.4,0-31.8,14.3-34.8,33.2c-4.6-2.6-10.2-4.1-15.9-4.1c-19.5,0-35.4,17.9-35.4,40.4
					c0,4.1,0.5,7.7,1.5,11.8H51.7c-5.6,0-10.2,0.1-10.2,6.8h315.1c0-6.1-4.6-6.8-10.2-6.8h-11.8V450.9z"/>
				<path class="st2" d="M214.6,294.4v32c0,3.1,2.6,5.1,5.1,5.1c3.1,0,5.1-2.6,5.1-5.1v-32c0-3.1-2.6-5.1-5.1-5.1
					C216.6,289.3,214.6,291.8,214.6,294.4z"/>
				<path class="st2" d="M178.9,298.3v5.1c0,3.1,2.6,5.1,5.1,5.1c3.1,0,5.1-2.6,5.1-5.1v-5.1c0-3.1-2.6-5.1-5.1-5.1
					S178.9,295.7,178.9,298.3z"/>
				<path class="st3" d="M116.7,237.6c1.6,0.7,2.9,0.7,4.4,0.7c2,0,3.7-0.1,6.4-0.1h28.2c1.2,0,1,0.4,2,1.4c2,3.1,3.6,6.3,5.1,9.7
					c0.3,0.6,0.5,1,0.5,1c3.1,7.2,4.6,14.8,4.6,22.5v5.6c0,3.1,2.6,5.1,5.1,5.1h51.7c3.1,0,5.1-2.6,5.1-5.1v-5.6
					c0-7.7,1.5-15.3,4.6-22.5c0.3-0.6,0.2-0.5,0.5-1c1.5-3.1,3.2-6.5,5.6-9.7c0.5-0.6,0.9-1.3,2-1.4l31-0.5c2.2,0,4,0,6.1,0
					c1.5,0,3.3,0,4.7-0.6c3.6-2,7-4.1,5.6-9.2l-15-24.2c-9.9-18.4-10.4-18.4-14-36.7c-2-32.7-17.9-65-47.1-89.5l-11.3-9.7
					c-2-1.5-4.6-1.5-6.7,0l-11.3,9.7c-29.2,24.6-45.1,56.3-47.1,89.5c-1.4,22.8-3.9,26.3-10.2,36.7l-15.9,24.7
					C109.5,232,113.1,236.1,116.7,237.6z M219.7,273.9h-41.5v-0.5c0-6.6-1-13.8-3.1-19.9h47.6c-2,6.1-3.1,12.8-3.1,19.9V273.9z
					 M264.8,205.7l14.7,22.7h-31.5c7-14.8,7-16.3,10.9-31.6C261.8,200.7,262.8,202.2,264.8,205.7z M191,86.2l8.2-7.2l8.2,6.6
					C254,124.6,264.3,185.4,232,234c-2,3.1-3.8,5.4-5.3,8.4h-55.3c-1.5-3.1-3.4-5.9-5.5-8.4C134.2,186,144.4,125.1,191,86.2z
					 M137.2,203.7c3-6.9,0.5-2,3-6.9c3.5,17.4,6.4,23.3,10.3,31.1l-29.2,0.5L137.2,203.7z"/>
				<path class="st4" d="M219.7,273.9v-0.5c0-6.6,1-13.8,3.1-19.9h-24v20.5H219.7z"/>
				<path class="st4" d="M199.2,163.9c19.1,0,32.8,11.6,32.8,32.2s-17.8,30.1-32.8,30.1l0,16.2h27.4c1.5-3.1,3.3-5.8,5.3-8.3
					c32.3-48.1,22-109.6-24.6-149l-8.2-6.1V163.9z"/>
				<path class="st4" d="M258.8,196.8c1.5,2,2,2.5,3.5,5l17.1,26.6h-31.6C254.4,213.1,254.4,214.1,258.8,196.8z"/>
				<path class="st5" d="M207.1,84.8l-7.7-6.6l-8.2,6.6c-23.1,19.4-37.4,44-42,69.6c0,0,17.4-7.8,50-7.8s50,7.8,50,7.8
					C244.5,128.8,230.1,104.3,207.1,84.8z"/>
				<path class="st6" d="M198.8,78.8c0,0,0,62.3,0,67.7c32,0,50.3,7.9,50.3,7.9C244.5,128.6,231.2,102,198.8,78.8z"/>
				<path class="st7" d="M177.2,445.2c-21.3-27.3-8.9-52.9,0-62.3c-8.3,41.9,19,59,33.7,62.3H177.2z"/>
				<path class="st7" d="M81.3,445.2c-4.2-14.5,0-23.3,9.6-28.7c-6.6,19.9,12,28.7,12,28.7H81.3z"/>
				<path class="st7" d="M317.7,445.2c4.2-14.8,0-23.6-9.6-29.1c6.7,20.2-12.1,29.1-12.1,29.1H317.7z"/>
				<path class="st7" d="M231.7,445.2c4.2-6.2,14.1-14.5,7.9-34.9c5.8,26.2-21.7,34.9-21.7,34.9H231.7z"/>
			</g>
		</g>
		<path class="st8" d="M218.8,211.8c0-0.2-0.3-0.3-0.3-0.3c-2.8-0.5-5.5-2.6-7.5-4.9c-2.8-3.2-5.1-6.6-7.1-10.4
			c-0.3-0.8,0.1-0.9,0.1-0.9c5.5-2.2,6.4-8.1,6.4-9.7c0-7.4-6.6-9.6-12.6-9.6c-2.2,0-3,0.2-5.4,0.2c-2.7,0-4.4-0.2-4.8-0.2
			c-0.4,0-0.6,0.3-0.6,0.7v0c0,1.8,3.8-1.3,3.8,4.7v23.9c0,5.5-3.7,4-3.7,5.4c0,0.4,0.5,0.6,0.7,0.6c1.4,0,2.9-0.2,5.1-0.2
			c2.8,0,3.5,0.2,5.1,0.2c1.2,0,1.3-0.2,1.3-0.6c0-1.7-4.9,0.9-4.9-6.3v-25.2c0-1.5,1-1.5,2.5-1.5c5.4,0,9.6,3.2,9.7,9.2
			c0.1,4.1-2.8,8-7.6,8c-0.6,0-1.1,0-1.7-0.1c-0.2,0-0.5,0.1-0.5,0.4c0,0.4,0.4,0.7,0.8,0.8c0.5,0.2,1.7,0.4,3,2.5
			c3.2,5.6,6.8,13.9,15,13.9C219.1,212.5,218.8,212.1,218.8,211.8z"/>
		<path class="st3" d="M389.4,262h-42.8V86.7H402c14.9,0,26.1,0.9,33.6,2.6c7.7,1.8,14.4,5.1,20.2,10c14.4,11.9,21.5,27.9,21.5,48.1
			c0,14.5-3.9,26.8-11.8,36.8c-7.9,9.8-18.5,15.9-31.8,18.1l47.5,59.7h-51.2l-40.7-56.8V262z M389.4,126.1v48.6h15.8
			c19.4,0,29.2-8.2,29.2-24.7c0-15.9-9.5-23.9-28.6-23.9H389.4z"/>
		<path class="st3" d="M495.7,130.6h39.4V262h-39.4V130.6z"/>
		<path class="st3" d="M591.3,305.9h-39.4V130.6h37v14.5c9.8-12.6,23.6-18.9,41.5-18.9c18.9,0,34.3,6.7,46.2,20
			c12.1,13.3,18.1,30.4,18.1,51.2c0,19.6-6.1,36.1-18.4,49.4c-12.3,13.1-27.5,19.7-45.7,19.7c-16.3,0-29.4-5.5-39.4-16.6V305.9z
			 M622.3,162.9c-9.1,0-16.9,3.2-23.4,9.7c-6.3,6.3-9.5,14-9.5,23.1c0,9.5,3.2,17.5,9.5,24.2c6.5,6.5,14.4,9.7,23.6,9.7
			c9.3,0,17.1-3.2,23.4-9.5c6.3-6.5,9.5-14.5,9.5-23.9c0-9.5-3.2-17.3-9.5-23.7C639.7,166.2,631.8,162.9,622.3,162.9z"/>
		<path class="st3" d="M748.4,262H709V86.7h39.4V262z"/>
		<path class="st3" d="M855.9,222.8c0,0,0.6-0.6,1.8-1.8h39.9c-6.1,14.2-14.9,25.3-26.3,33.4c-11.2,8.1-23.7,12.1-37.6,12.1
			c-19.3,0-35.6-6.7-49.1-20.2c-13.3-13.7-20-30.2-20-49.7c0-19.6,6.7-36.3,20-49.9c13.3-13.7,29.4-20.5,48.3-20.5
			c19.6,0,36.1,6.9,49.4,20.8c13.3,13.7,20,30.7,20,51c0,3.2-0.4,6.7-1.1,10.8h-98.5c0.9,7.4,3.9,13.3,9.2,17.9
			c5.4,4.4,12,6.6,19.7,6.6C840.5,233.1,848.6,229.7,855.9,222.8z M803.9,182.4H863c-1.4-6.8-4.8-12.4-10.2-16.6
			c-5.4-4.2-11.9-6.3-19.4-6.3C817,159.5,807.2,167.1,803.9,182.4z"/>
		<path class="st3" d="M969.8,206.8l25.5-76.2h41.8L976.9,295h-41.5l15-39.5l-48.9-124.8h41.8L969.8,206.8z"/>
		<path class="st3" d="M534.5,94.4c0,11.4-9.2,20.7-20.7,20.7c-11.4,0-20.7-9.3-20.7-20.7c0-11.4,9.2-20.7,20.7-20.7
			C525.3,73.8,534.5,83,534.5,94.4z"/>
		<path class="st6" d="M411,427.2h-36.2v-111h-28.1v-32.2h92.5v32.2H411V427.2z"/>
		<path class="st6" d="M501.4,395.3c0,0,0.5-0.5,1.5-1.5h32.4c-5,11.6-12.1,20.7-21.3,27.3c-9.1,6.6-19.2,9.9-30.5,9.9
			c-15.6,0-28.9-5.5-39.8-16.5c-10.8-11.2-16.2-24.7-16.2-40.6c0-16,5.4-29.6,16.2-40.8c10.8-11.2,23.9-16.7,39.2-16.7
			c15.9,0,29.3,5.7,40.1,17c10.8,11.2,16.2,25,16.2,41.6c0,2.6-0.3,5.5-0.9,8.8h-79.9c0.7,6,3.2,10.9,7.5,14.6
			c4.4,3.6,9.7,5.4,16,5.4C488.9,403.6,495.4,400.8,501.4,395.3z M459.2,362.2h47.9c-1.1-5.6-3.9-10.1-8.3-13.5
			c-4.4-3.4-9.7-5.2-15.8-5.2C469.8,343.5,461.9,349.8,459.2,362.2z"/>
		<path class="st6" d="M606.8,400.8c9.5,0,17.3-4.8,23.4-14.4h32.2c-3.1,13.2-9.9,23.9-20.2,32.2c-10.4,8.2-22.2,12.2-35.6,12.2
			c-15.9,0-29.4-5.6-40.5-16.7c-11.1-11.2-16.6-24.8-16.6-40.8c0-16,5.4-29.6,16.2-40.6c10.9-11,24.3-16.5,40.1-16.5
			c13.9,0,26.1,4.1,36.7,12.5c10.5,8.3,17.1,19.2,19.8,32.6H630c-4.3-10-12-15-23.2-15c-7.4,0-13.5,2.6-18.3,7.9
			c-4.7,5.2-7,11.7-7,19.7c0,7.9,2.3,14.3,7,19.3C593.3,398.3,599.4,400.8,606.8,400.8z"/>
		<path class="st6" d="M706,427.2h-32V284.1h32v45.5c5.3-8.9,14.6-13.3,27.9-13.3c12.1,0,21.7,3.9,28.8,11.6c4.5,5,7.5,11.2,9,18.5
			c0.7,4.1,1.1,11.2,1.1,21v59.9h-32v-58.6c0-14.9-5.7-22.3-17-22.3c-11.8,0-17.7,7.2-17.7,21.5V427.2z"/>
	</g>
	<path class="st0" d="M198.8,273.6v-20.5h-24c2,6.1,3.1,13.3,3.1,19.9v0.5H198.8z"/>
	<path class="st0" d="M152,228.2h-31.6l17.1-26.6c1.5-2.5,2-3,3.5-5C145.5,214,145.5,213,152,228.2z"/>
</g>
</svg>
