<svg width="583" height="635" viewBox="0 0 583 635" fill="none" xmlns="http://www.w3.org/2000/svg">
<path d="M300.944 109.7C274.501 136.684 264.176 173.503 270.22 207.548C271.227 212.591 275.005 216.374 280.041 217.131C314.039 222.427 350.556 211.583 376.998 184.347C403.441 157.363 413.766 120.544 407.722 86.4992C406.715 81.4555 402.937 77.6728 397.901 76.9162C363.903 71.6204 327.387 82.7165 300.944 109.7Z" fill="#4EAE3B"/>
<path d="M403.693 79.9425L274.249 214.609C275.76 215.87 277.775 216.879 279.79 217.131C313.787 222.427 350.304 211.583 376.746 184.347C403.189 157.363 413.514 120.544 407.47 86.4993C406.967 83.9775 405.707 81.7078 403.693 79.9425Z" fill="#00A658"/>
<path d="M342.245 393.407C317.565 393.407 295.655 405.764 282.056 424.426V509.917C295.404 528.83 317.313 540.935 342.245 540.935C383.042 540.935 416.033 507.899 416.033 467.045C416.033 426.191 383.042 393.407 342.245 393.407Z" fill="#4B0D80"/>
<path d="M402.182 289.003C377.502 289.003 355.592 301.36 341.993 320.022C328.646 301.108 306.736 289.003 281.804 289.003V436.783C306.484 436.783 328.394 424.426 341.993 405.764C355.34 424.678 377.25 436.783 402.182 436.783C442.979 436.783 475.97 403.747 475.97 362.893C475.97 322.039 442.979 289.003 402.182 289.003Z" fill="#A76DE2"/>
<path d="M342.245 185.103C317.565 185.103 295.655 197.46 282.056 216.122V301.612C295.404 320.526 317.313 332.631 342.245 332.631C383.042 332.631 416.033 299.595 416.033 258.741C416.033 217.887 383.042 185.103 342.245 185.103Z" fill="#4B0D80"/>
<path d="M222.119 393.407C246.799 393.407 268.709 405.765 282.308 424.426V509.917C268.961 528.83 247.051 540.935 222.119 540.935C181.322 540.935 148.331 507.899 148.331 467.045C148.331 426.191 181.322 393.407 222.119 393.407Z" fill="#69148E"/>
<path d="M161.93 289.003C186.61 289.003 208.52 301.36 222.119 320.022C235.467 301.108 257.376 289.003 282.308 289.003V436.783C257.628 436.783 235.718 424.426 222.119 405.764C208.772 424.678 186.862 436.783 161.93 436.783C121.133 436.783 88.1426 403.747 88.1426 362.893C88.1426 322.039 121.133 289.003 161.93 289.003Z" fill="#C198ED"/>
<path d="M222.119 185.103C246.799 185.103 268.709 197.46 282.308 216.122V301.612C268.961 320.526 247.051 332.631 222.119 332.631C181.322 332.631 148.331 299.595 148.331 258.741C148.331 217.887 181.322 185.103 222.119 185.103Z" fill="#69148E"/>
</svg>
